<?xml version="1.0" encoding="UTF-8" standalone="no"?>
<!-- Created with Inkscape (http://www.inkscape.org/) -->
<svg
   xmlns:dc="http://purl.org/dc/elements/1.1/"
   xmlns:cc="http://web.resource.org/cc/"
   xmlns:rdf="http://www.w3.org/1999/02/22-rdf-syntax-ns#"
   xmlns:svg="http://www.w3.org/2000/svg"
   xmlns="http://www.w3.org/2000/svg"
   xmlns:sodipodi="http://sodipodi.sourceforge.net/DTD/sodipodi-0.dtd"
   xmlns:inkscape="http://www.inkscape.org/namespaces/inkscape"
   width="856.3399"
   height="360.51437"
   id="svg2046"
   sodipodi:version="0.32"
   inkscape:version="0.44"
   version="1.0"
   sodipodi:docbase="/home/pat/0-travail"
   sodipodi:docname="Caesar3.svg">
  <defs
     id="defs2048" />
  <sodipodi:namedview
     id="base"
     pagecolor="white"
     bordercolor="#666666"
     borderopacity="1.0"
     inkscape:pageopacity="1"
     inkscape:pageshadow="2"
     inkscape:zoom="1.0568233"
     inkscape:cx="457.92516"
     inkscape:cy="177.05895"
     inkscape:document-units="px"
     inkscape:current-layer="layer1"
     inkscape:showpageshadow="false"
     inkscape:window-width="994"
     inkscape:window-height="622"
     inkscape:window-x="0"
     inkscape:window-y="0" />
  <metadata
     id="metadata2051">
    <rdf:RDF>
      <cc:Work
         rdf:about="">
        <dc:format>image/svg+xml</dc:format>
        <dc:type
           rdf:resource="http://purl.org/dc/dcmitype/StillImage" />
      </cc:Work>
    </rdf:RDF>
  </metadata>
  <g
     inkscape:label="Calque 1"
     inkscape:groupmode="layer"
     id="layer1"
     transform="translate(90.55398,-272.4594)">
    <g
       id="g2052">
      <rect
         ry="1.1754904e-39"
         rx="1.1754904e-39"
         y="272.45935"
         x="-90.553978"
         height="360.51437"
         width="856.3399"
         id="rect1928"
         style="color:black;fill:white;fill-opacity:1;fill-rule:nonzero;stroke:none;stroke-width:1;stroke-linecap:butt;stroke-linejoin:miter;marker:none;marker-start:none;marker-mid:none;marker-end:none;stroke-miterlimit:2.29999995;stroke-dasharray:none;stroke-dashoffset:0;stroke-opacity:1;visibility:visible;display:block" />
      <g
         id="g1927"
         transform="matrix(35.43307,0,0,35.43307,-247.5028,115.748)">
        <text
           xml:space="preserve"
           style="font-size:1.35466659px;font-style:normal;font-weight:bold;fill:black;fill-opacity:1;stroke:none;stroke-width:1px;stroke-linecap:butt;stroke-linejoin:miter;stroke-opacity:1;font-family:Bitstream Vera Sans"
           x="15.391378"
           y="6.5002723"
           id="text2008"><tspan
             sodipodi:role="line"
             id="tspan2010"
             x="15.391378"
             y="6.5002723" /></text>
        <polyline
           style="fill:none;fill-opacity:0;stroke:#bfbfbf;stroke-width:0.15000001"
           points="15.75,12.3323 16,12.8323 16.25,12.3323 "
           id="polyline114"
           transform="translate(-0.5,-0.5)" />
        <polyline
           style="fill:none;fill-opacity:0;stroke:#bfbfbf;stroke-width:0.15000001"
           points="13.75,12.3323 14,12.8323 14.25,12.3323 "
           id="polyline118"
           transform="translate(-0.5,-0.5)" />
        <polyline
           style="fill:none;fill-opacity:0;stroke:#bfbfbf;stroke-width:0.15000001"
           points="11.75,12.3323 12,12.8323 12.25,12.3323 "
           id="polyline122"
           transform="translate(-0.5,-0.5)" />
        <path
           style="color:black;fill:none;fill-opacity:0;fill-rule:nonzero;stroke:#bfbfbf;stroke-width:0.14111111;stroke-linecap:butt;stroke-linejoin:miter;marker:none;marker-start:none;marker-mid:none;marker-end:none;stroke-miterlimit:4;stroke-dasharray:0.14111111, 0.14111111;stroke-dashoffset:0;stroke-opacity:1;visibility:visible;display:inline;overflow:visible"
           d="M 9.5,6.5 C 9.5,9.5 15.5,10.5 15.5,12.1646"
           id="path112" />
        <path
           style="color:black;fill:none;fill-opacity:0;fill-rule:nonzero;stroke:#bfbfbf;stroke-width:0.14111111;stroke-linecap:butt;stroke-linejoin:miter;marker:none;marker-start:none;marker-mid:none;marker-end:none;stroke-miterlimit:4;stroke-dasharray:0.14111111, 0.14111111;stroke-dashoffset:0;stroke-opacity:1;visibility:visible;display:inline;overflow:visible"
           d="M 7.5,6.5 C 7.5,9.5 13.5,10.5 13.5,12.1646"
           id="path116" />
        <path
           style="color:black;fill:none;fill-opacity:0;fill-rule:nonzero;stroke:#bfbfbf;stroke-width:0.14111111;stroke-linecap:butt;stroke-linejoin:miter;marker:none;marker-start:none;marker-mid:none;marker-end:none;stroke-miterlimit:4;stroke-dasharray:0.14111111, 0.14111111;stroke-dashoffset:0;stroke-opacity:1;visibility:visible;display:inline;overflow:visible"
           d="M 5.5,6.5 C 5.5,9.5 11.5,10.5 11.5,12.1646"
           id="path120" />
        <path
           style="color:black;fill:none;fill-opacity:0;fill-rule:nonzero;stroke:#bfbfbf;stroke-width:0.14111111;stroke-linecap:butt;stroke-linejoin:miter;marker:none;marker-start:none;marker-mid:none;marker-end:none;stroke-miterlimit:4;stroke-dasharray:0.14111111, 0.14111111;stroke-dashoffset:0;stroke-opacity:1;visibility:visible;display:inline;overflow:visible"
           d="M 17.5,6.5 C 17.5,9.5 23.5,10.5 23.5,12.1646"
           id="path100" />
        <path
           style="color:black;fill:none;fill-opacity:0;fill-rule:nonzero;stroke:#bfbfbf;stroke-width:0.14111111;stroke-linecap:butt;stroke-linejoin:miter;marker:none;marker-start:none;marker-mid:none;marker-end:none;stroke-miterlimit:4;stroke-dasharray:0.14111111, 0.14111111;stroke-dashoffset:0;stroke-opacity:1;visibility:visible;display:inline;overflow:visible"
           d="M 21.5,6.5 C 21.5,9.5 27.5,10.5 27.5,12.1646"
           id="path104" />
        <path
           style="color:black;fill:none;fill-opacity:0;fill-rule:nonzero;stroke:#bfbfbf;stroke-width:0.14111111;stroke-linecap:butt;stroke-linejoin:miter;marker:none;marker-start:none;marker-mid:none;marker-end:none;stroke-miterlimit:4;stroke-dasharray:0.14111111, 0.14111111;stroke-dashoffset:0;stroke-opacity:1;visibility:visible;display:inline;overflow:visible"
           d="M 19.5,6.5 C 19.5,9.5 25.5,10.5 25.5,12.1646"
           id="path108" />
        <rect
           style="color:black;fill:none;fill-opacity:0;fill-rule:nonzero;stroke:#bfbfbf;stroke-width:0.14111111;stroke-linecap:butt;stroke-linejoin:miter;marker:none;marker-start:none;marker-mid:none;marker-end:none;stroke-miterlimit:4;stroke-dasharray:0.14111111, 0.14111111;stroke-dashoffset:0;stroke-opacity:1;visibility:visible;display:inline;overflow:visible"
           x="22.5"
           y="12.5"
           width="2"
           height="2"
           rx="1.1754904e-39"
           ry="1.1754904e-39"
           id="rect6" />
        <rect
           style="fill:none;fill-opacity:0;stroke:#bfbfbf;stroke-width:0.14111111;stroke-miterlimit:4;stroke-dasharray:0.14111111, 0.14111111;stroke-dashoffset:0"
           x="4.5"
           y="4.5"
           width="2"
           height="2"
           rx="1.1754904e-39"
           ry="1.1754904e-39"
           id="rect10" />
        <rect
           style="color:black;fill:none;fill-opacity:0;fill-rule:nonzero;stroke:#bfbfbf;stroke-width:0.14111111;stroke-linecap:butt;stroke-linejoin:miter;marker:none;marker-start:none;marker-mid:none;marker-end:none;stroke-miterlimit:4;stroke-dasharray:0.14111111, 0.14111111;stroke-dashoffset:0;stroke-opacity:1;visibility:visible;display:inline;overflow:visible"
           x="6.5"
           y="4.5"
           width="2"
           height="2"
           rx="1.1754904e-39"
           ry="1.1754904e-39"
           id="rect12" />
        <rect
           style="color:black;fill:none;fill-opacity:0;fill-rule:nonzero;stroke:#bfbfbf;stroke-width:0.14111111;stroke-linecap:butt;stroke-linejoin:miter;marker:none;marker-start:none;marker-mid:none;marker-end:none;stroke-miterlimit:4;stroke-dasharray:0.14111111, 0.14111111;stroke-dashoffset:0;stroke-opacity:1;visibility:visible;display:inline;overflow:visible"
           x="8.5"
           y="4.5"
           width="2"
           height="2"
           rx="1.1754904e-39"
           ry="1.1754904e-39"
           id="rect16" />
        <rect
           style="fill:white;fill-opacity:1;stroke:black;stroke-width:0.14111111;stroke-miterlimit:4;stroke-dasharray:none"
           x="10.5"
           y="4.5"
           width="2"
           height="2"
           rx="1.1754904e-39"
           ry="1.1754904e-39"
           id="rect22" />
        <rect
           style="color:black;fill:#add8e6;fill-opacity:1;fill-rule:nonzero;stroke:black;stroke-width:0.14111111;stroke-linecap:butt;stroke-linejoin:miter;marker:none;marker-start:none;marker-mid:none;marker-end:none;stroke-miterlimit:4;stroke-dasharray:none;stroke-dashoffset:0;stroke-opacity:1;visibility:visible;display:inline;overflow:visible"
           x="12.5"
           y="4.5"
           width="2"
           height="2"
           rx="1.1754904e-39"
           ry="1.1754904e-39"
           id="rect26" />
        <rect
           style="color:black;fill:white;fill-opacity:1;fill-rule:nonzero;stroke:black;stroke-width:0.14111111;stroke-linecap:butt;stroke-linejoin:miter;marker:none;marker-start:none;marker-mid:none;marker-end:none;stroke-miterlimit:4;stroke-dasharray:none;stroke-dashoffset:0;stroke-opacity:1;visibility:visible;display:inline;overflow:visible"
           x="14.5"
           y="4.5"
           width="2"
           height="2"
           rx="1.1754904e-39"
           ry="1.1754904e-39"
           id="rect30" />
        <rect
           style="color:black;fill:white;fill-opacity:1;fill-rule:nonzero;stroke:black;stroke-width:0.14111111;stroke-linecap:butt;stroke-linejoin:miter;marker:none;marker-start:none;marker-mid:none;marker-end:none;stroke-miterlimit:4;stroke-dasharray:none;stroke-dashoffset:0;stroke-opacity:1;visibility:visible;display:inline;overflow:visible"
           x="16.5"
           y="4.5"
           width="2"
           height="2"
           rx="1.1754904e-39"
           ry="1.1754904e-39"
           id="rect34" />
        <rect
           style="color:black;fill:white;fill-opacity:1;fill-rule:nonzero;stroke:black;stroke-width:0.14111111;stroke-linecap:butt;stroke-linejoin:miter;marker:none;marker-start:none;marker-mid:none;marker-end:none;stroke-miterlimit:4;stroke-dasharray:none;stroke-dashoffset:0;stroke-opacity:1;visibility:visible;display:inline;overflow:visible"
           x="18.5"
           y="4.5"
           width="2"
           height="2"
           rx="1.1754904e-39"
           ry="1.1754904e-39"
           id="rect38" />
        <rect
           style="color:black;fill:white;fill-opacity:1;fill-rule:nonzero;stroke:black;stroke-width:0.14111111;stroke-linecap:butt;stroke-linejoin:miter;marker:none;marker-start:none;marker-mid:none;marker-end:none;stroke-miterlimit:4;stroke-dasharray:none;stroke-dashoffset:0;stroke-opacity:1;visibility:visible;display:inline;overflow:visible"
           x="20.5"
           y="4.5"
           width="2"
           height="2"
           rx="1.1754904e-39"
           ry="1.1754904e-39"
           id="rect42" />
        <line
           style="color:black;fill:none;fill-opacity:0;fill-rule:nonzero;stroke:#bfbfbf;stroke-width:0.14111111;stroke-linecap:butt;stroke-linejoin:miter;marker:none;marker-start:none;marker-mid:none;marker-end:none;stroke-miterlimit:4;stroke-dasharray:0.14111111, 0.14111111;stroke-dashoffset:0;stroke-opacity:1;visibility:visible;display:inline;overflow:visible"
           x1="23"
           y1="5.5"
           x2="24"
           y2="5.5"
           id="line44" />
        <rect
           style="color:black;fill:white;fill-opacity:1;fill-rule:nonzero;stroke:black;stroke-width:0.14111111;stroke-linecap:butt;stroke-linejoin:miter;marker:none;marker-start:none;marker-mid:none;marker-end:none;stroke-miterlimit:4;stroke-dasharray:none;stroke-dashoffset:0;stroke-opacity:1;visibility:visible;display:inline;overflow:visible"
           x="10.5"
           y="12.5"
           width="2"
           height="2"
           rx="1.1754904e-39"
           ry="1.1754904e-39"
           id="rect52" />
        <rect
           style="color:black;fill:white;fill-opacity:1;fill-rule:nonzero;stroke:black;stroke-width:0.14111111;stroke-linecap:butt;stroke-linejoin:miter;marker:none;marker-start:none;marker-mid:none;marker-end:none;stroke-miterlimit:4;stroke-dasharray:none;stroke-dashoffset:0;stroke-opacity:1;visibility:visible;display:inline;overflow:visible"
           x="12.5"
           y="12.5"
           width="2"
           height="2"
           rx="1.1754904e-39"
           ry="1.1754904e-39"
           id="rect56" />
        <rect
           style="color:black;fill:white;fill-opacity:1;fill-rule:nonzero;stroke:black;stroke-width:0.14111111;stroke-linecap:butt;stroke-linejoin:miter;marker:none;marker-start:none;marker-mid:none;marker-end:none;stroke-miterlimit:4;stroke-dasharray:none;stroke-dashoffset:0;stroke-opacity:1;visibility:visible;display:inline;overflow:visible"
           x="14.5"
           y="12.5"
           width="2"
           height="2"
           rx="1.1754904e-39"
           ry="1.1754904e-39"
           id="rect60" />
        <rect
           style="color:black;fill:white;fill-opacity:1;fill-rule:nonzero;stroke:black;stroke-width:0.14111111;stroke-linecap:butt;stroke-linejoin:miter;marker:none;marker-start:none;marker-mid:none;marker-end:none;stroke-miterlimit:4;stroke-dasharray:none;stroke-dashoffset:0;stroke-opacity:1;visibility:visible;display:inline;overflow:visible"
           x="16.5"
           y="12.5"
           width="2"
           height="2"
           rx="1.1754904e-39"
           ry="1.1754904e-39"
           id="rect64" />
        <rect
           style="color:black;fill:#add8e6;fill-opacity:1;fill-rule:nonzero;stroke:black;stroke-width:0.14111111;stroke-linecap:butt;stroke-linejoin:miter;marker:none;marker-start:none;marker-mid:none;marker-end:none;stroke-miterlimit:4;stroke-dasharray:none;stroke-dashoffset:0;stroke-opacity:1;visibility:visible;display:inline;overflow:visible"
           x="18.5"
           y="12.5"
           width="2"
           height="2"
           rx="1.1754904e-39"
           ry="1.1754904e-39"
           id="rect68" />
        <rect
           style="color:black;fill:white;fill-opacity:1;fill-rule:nonzero;stroke:black;stroke-width:0.14111111;stroke-linecap:butt;stroke-linejoin:miter;marker:none;marker-start:none;marker-mid:none;marker-end:none;stroke-miterlimit:4;stroke-dasharray:none;stroke-dashoffset:0;stroke-opacity:1;visibility:visible;display:inline;overflow:visible"
           x="20.5"
           y="12.5"
           width="2"
           height="2"
           rx="1.1754904e-39"
           ry="1.1754904e-39"
           id="rect72" />
        <path
           style="fill:none;fill-opacity:0;stroke:black;stroke-width:0.15000001"
           d="M 11.5,6.5 C 11.5,9.5 17.5,10.5 17.5,12.1646"
           id="path76" />
        <polyline
           style="fill:none;fill-opacity:0;stroke:black;stroke-width:0.15000001"
           points="17.75,12.3323 18,12.8323 18.25,12.3323 "
           id="polyline78"
           transform="translate(-0.5,-0.5)" />
        <line
           style="color:black;fill:none;fill-opacity:0;fill-rule:nonzero;stroke:#bfbfbf;stroke-width:0.14111111;stroke-linecap:butt;stroke-linejoin:miter;marker:none;marker-start:none;marker-mid:none;marker-end:none;stroke-miterlimit:4;stroke-dasharray:0.14111111, 0.14111111;stroke-dashoffset:0;stroke-opacity:1;visibility:visible;display:inline;overflow:visible"
           x1="9"
           y1="13.5"
           x2="10"
           y2="13.5"
           id="line80" />
        <rect
           style="color:black;fill:none;fill-opacity:0;fill-rule:nonzero;stroke:#bfbfbf;stroke-width:0.14111111;stroke-linecap:butt;stroke-linejoin:miter;marker:none;marker-start:none;marker-mid:none;marker-end:none;stroke-miterlimit:4;stroke-dasharray:0.14111111, 0.14111111;stroke-dashoffset:0;stroke-opacity:1;visibility:visible;display:inline;overflow:visible"
           x="24.5"
           y="12.5"
           width="2"
           height="2"
           rx="1.1754904e-39"
           ry="1.1754904e-39"
           id="rect84" />
        <rect
           style="color:black;fill:none;fill-opacity:0;fill-rule:nonzero;stroke:#bfbfbf;stroke-width:0.14111111;stroke-linecap:butt;stroke-linejoin:miter;marker:none;marker-start:none;marker-mid:none;marker-end:none;stroke-miterlimit:4;stroke-dasharray:0.14111111, 0.14111111;stroke-dashoffset:0;stroke-opacity:1;visibility:visible;display:inline;overflow:visible"
           x="26.5"
           y="12.5"
           width="2"
           height="2"
           rx="1.1754904e-39"
           ry="1.1754904e-39"
           id="rect88" />
        <path
           style="fill:none;fill-opacity:0;stroke:black;stroke-width:0.15000001"
           d="M 13.5,6.5 C 13.5,9.5 19.5,10.5 19.5,12.1646"
           id="path92" />
        <polyline
           style="fill:none;fill-opacity:0;stroke:black;stroke-width:0.15000001"
           points="19.75,12.3323 20,12.8323 20.25,12.3323 "
           id="polyline94"
           transform="translate(-0.5,-0.5)" />
        <path
           style="fill:none;fill-opacity:0;stroke:black;stroke-width:0.15000001"
           d="M 15.5,6.5 C 15.5,9.5 21.5,10.5 21.5,12.1646"
           id="path96" />
        <polyline
           style="fill:none;fill-opacity:0;stroke:black;stroke-width:0.15000001"
           points="21.75,12.3323 22,12.8323 22.25,12.3323 "
           id="polyline98"
           transform="translate(-0.5,-0.5)" />
        <polyline
           style="fill:none;fill-opacity:0;stroke:#bfbfbf;stroke-width:0.15000001"
           points="23.75,12.3323 24,12.8323 24.25,12.3323 "
           id="polyline102"
           transform="translate(-0.5,-0.5)" />
        <polyline
           style="fill:none;fill-opacity:0;stroke:#bfbfbf;stroke-width:0.15000001"
           points="27.75,12.3323 28,12.8323 28.25,12.3323 "
           id="polyline106"
           transform="translate(-0.5,-0.5)" />
        <polyline
           style="fill:none;fill-opacity:0;stroke:#bfbfbf;stroke-width:0.15000001"
           points="25.75,12.3323 26,12.8323 26.25,12.3323 "
           id="polyline110"
           transform="translate(-0.5,-0.5)" />
        <path
           style="font-size:1.35466659px;font-style:normal;font-variant:normal;font-weight:normal;font-stretch:normal;text-indent:0;text-align:center;text-decoration:none;line-height:normal;letter-spacing:normal;word-spacing:normal;text-transform:none;direction:ltr;block-progression:tb;writing-mode:lr-tb;text-anchor:middle;color:black;fill:black;fill-opacity:1;fill-rule:nonzero;stroke:none;stroke-width:1px;stroke-linecap:butt;stroke-linejoin:miter;marker:none;marker-start:none;marker-mid:none;marker-end:none;stroke-miterlimit:4;stroke-dashoffset:0;stroke-opacity:1;visibility:visible;display:inline;overflow:visible;font-family:Bitstream Vera Sans"
           d="M 11.5,5.1378517 L 11.31876,5.6293152 L 11.681901,5.6293152 L 11.5,5.1378517 M 11.424594,5.0062215 L 11.576068,5.0062215 L 11.952437,5.9937787 L 11.813531,5.9937787 L 11.723573,5.7404402 L 11.278411,5.7404402 L 11.188453,5.9937787 L 11.047563,5.9937787 L 11.424594,5.0062215"
           id="text1992" />
        <path
           style="font-size:1.35466659px;font-style:normal;font-variant:normal;font-weight:bold;font-stretch:normal;text-indent:0;text-align:center;text-decoration:none;line-height:normal;letter-spacing:normal;word-spacing:normal;text-transform:none;direction:ltr;block-progression:tb;writing-mode:lr-tb;text-anchor:middle;color:black;fill:black;fill-opacity:1;fill-rule:nonzero;stroke:none;stroke-width:1px;stroke-linecap:butt;stroke-linejoin:miter;marker:none;marker-start:none;marker-mid:none;marker-end:none;stroke-miterlimit:4;stroke-dashoffset:0;stroke-opacity:1;visibility:visible;display:inline;overflow:visible;font-family:Bitstream Vera Sans"
           d="M 13.489086,5.3885444 C 13.529214,5.388545 13.559641,5.3797255 13.580367,5.362086 C 13.601092,5.3444478 13.611455,5.3184305 13.611455,5.284034 C 13.611455,5.2500798 13.601092,5.224283 13.580367,5.2066433 C 13.559641,5.1885643 13.529214,5.1795244 13.489086,5.1795235 L 13.348195,5.1795235 L 13.348195,5.3885444 L 13.489086,5.3885444 M 13.497685,5.8204766 C 13.548837,5.8204768 13.587201,5.809673 13.612778,5.7880652 C 13.638795,5.7664578 13.651804,5.7338259 13.651804,5.6901693 C 13.651804,5.6473954 13.639016,5.6154249 13.61344,5.5942579 C 13.587863,5.5726507 13.549278,5.5618469 13.497685,5.5618464 L 13.348195,5.5618464 L 13.348195,5.8204766 L 13.497685,5.8204766 M 13.734487,5.4652735 C 13.789166,5.481149 13.8315,5.5104737 13.861487,5.5532475 C 13.891472,5.5960222 13.906465,5.6484978 13.906466,5.7106746 C 13.906465,5.8059247 13.874274,5.8769212 13.809893,5.9236641 C 13.74551,5.9704072 13.647615,5.9937787 13.516205,5.9937787 L 13.093534,5.9937787 L 13.093534,5.0062215 L 13.475857,5.0062215 C 13.612998,5.0062225 13.712217,5.0269481 13.773513,5.0683985 C 13.835248,5.1098508 13.866116,5.1762171 13.866117,5.2674975 C 13.866116,5.3155641 13.854871,5.3565745 13.832383,5.3905287 C 13.809892,5.4240432 13.77726,5.4489581 13.734487,5.4652735"
           id="text1996" />
        <path
           style="font-size:1.35466659px;font-style:normal;font-variant:normal;font-weight:normal;font-stretch:normal;text-indent:0;text-align:center;text-decoration:none;line-height:normal;letter-spacing:normal;word-spacing:normal;text-transform:none;direction:ltr;block-progression:tb;writing-mode:lr-tb;text-anchor:middle;color:black;fill:black;fill-opacity:1;fill-rule:nonzero;stroke:none;stroke-width:1px;stroke-linecap:butt;stroke-linejoin:miter;marker:none;marker-start:none;marker-mid:none;marker-end:none;stroke-miterlimit:4;stroke-dashoffset:0;stroke-opacity:1;visibility:visible;display:inline;overflow:visible;font-family:Bitstream Vera Sans"
           d="M 17.21855,5.1160235 L 17.21855,5.8839766 L 17.379946,5.8839766 C 17.516206,5.8839767 17.615865,5.8531087 17.678925,5.7913725 C 17.742424,5.7296366 17.774174,5.6321819 17.774175,5.4990079 C 17.774174,5.3667169 17.742424,5.2699236 17.678925,5.2086277 C 17.615865,5.1468924 17.516206,5.1160244 17.379946,5.1160235 L 17.21855,5.1160235 M 17.084935,5.0062215 L 17.35944,5.0062215 C 17.550822,5.0062225 17.691271,5.0461304 17.780789,5.1259454 C 17.870306,5.2053212 17.915064,5.3296752 17.915065,5.4990079 C 17.915064,5.6692235 17.870085,5.794239 17.780128,5.8740548 C 17.690169,5.9538708 17.54994,5.9937787 17.35944,5.9937787 L 17.084935,5.9937787 L 17.084935,5.0062215"
           id="text2012" />
        <path
           style="font-size:1.35466659px;font-style:normal;font-variant:normal;font-weight:normal;font-stretch:normal;text-indent:0;text-align:center;text-decoration:none;line-height:normal;letter-spacing:normal;word-spacing:normal;text-transform:none;direction:ltr;block-progression:tb;writing-mode:lr-tb;text-anchor:middle;color:black;fill:black;fill-opacity:1;fill-rule:nonzero;stroke:none;stroke-width:1px;stroke-linecap:butt;stroke-linejoin:miter;marker:none;marker-start:none;marker-mid:none;marker-end:none;stroke-miterlimit:4;stroke-dashoffset:0;stroke-opacity:1;visibility:visible;display:inline;overflow:visible;font-family:Bitstream Vera Sans"
           d="M 19.181839,5.0062215 L 19.806255,5.0062215 L 19.806255,5.1186694 L 19.315453,5.1186694 L 19.315453,5.4110339 L 19.78575,5.4110339 L 19.78575,5.5234819 L 19.315453,5.5234819 L 19.315453,5.8813308 L 19.818161,5.8813308 L 19.818161,5.9937787 L 19.181839,5.9937787 L 19.181839,5.0062215"
           id="text2016" />
        <path
           style="font-size:1.35466659px;font-style:normal;font-variant:normal;font-weight:normal;font-stretch:normal;text-indent:0;text-align:center;text-decoration:none;line-height:normal;letter-spacing:normal;word-spacing:normal;text-transform:none;direction:ltr;block-progression:tb;writing-mode:lr-tb;text-anchor:middle;color:black;fill:black;fill-opacity:1;fill-rule:nonzero;stroke:none;stroke-width:1px;stroke-linecap:butt;stroke-linejoin:miter;marker:none;marker-start:none;marker-mid:none;marker-end:none;stroke-miterlimit:4;stroke-dashoffset:0;stroke-opacity:1;visibility:visible;display:inline;overflow:visible;font-family:Bitstream Vera Sans"
           d="M 21.216234,5.0062215 L 21.783765,5.0062215 L 21.783765,5.1186694 L 21.349849,5.1186694 L 21.349849,5.409711 L 21.741432,5.409711 L 21.741432,5.5221589 L 21.349849,5.5221589 L 21.349849,5.9937787 L 21.216234,5.9937787 L 21.216234,5.0062215"
           id="text2020" />
        <path
           style="font-size:1.35466659px;font-style:normal;font-variant:normal;font-weight:normal;font-stretch:normal;text-indent:0;text-align:center;text-decoration:none;line-height:normal;letter-spacing:normal;word-spacing:normal;text-transform:none;direction:ltr;block-progression:tb;writing-mode:lr-tb;text-anchor:middle;color:black;fill:black;fill-opacity:1;fill-rule:nonzero;stroke:none;stroke-width:1px;stroke-linecap:butt;stroke-linejoin:miter;marker:none;marker-start:none;marker-mid:none;marker-end:none;stroke-miterlimit:4;stroke-dashoffset:0;stroke-opacity:1;visibility:visible;display:inline;overflow:visible;font-family:Bitstream Vera Sans"
           d="M 15.898198,5.0816278 L 15.898198,5.2225184 C 15.853218,5.1806269 15.805152,5.1493179 15.754,5.1285913 C 15.703287,5.1078665 15.649268,5.0975037 15.591942,5.0975028 C 15.479053,5.0975037 15.392623,5.13212 15.332651,5.2013518 C 15.272678,5.2701441 15.242692,5.3698038 15.242692,5.5003309 C 15.242692,5.6304181 15.272678,5.7300777 15.332651,5.7993101 C 15.392623,5.8681018 15.479053,5.9024976 15.591942,5.9024975 C 15.649268,5.9024976 15.703287,5.8921348 15.754,5.871409 C 15.805152,5.8506835 15.853218,5.8193745 15.898198,5.7774819 L 15.898198,5.9170496 C 15.851454,5.9487997 15.801844,5.9726121 15.749369,5.9884871 C 15.697334,6.0043621 15.642213,6.0122996 15.584005,6.0122996 C 15.434515,6.0122996 15.316775,5.966659 15.230786,5.8753778 C 15.144796,5.7836557 15.101802,5.6586403 15.101802,5.5003309 C 15.101802,5.3415816 15.144796,5.2165661 15.230786,5.125284 C 15.316775,5.0335628 15.434515,4.9877017 15.584005,4.9877007 C 15.643094,4.9877017 15.698657,4.9956392 15.750692,5.0115132 C 15.803167,5.0269482 15.852336,5.0503197 15.898198,5.0816278"
           id="text2048" />
        <path
           style="font-size:1.35466659px;font-style:normal;font-variant:normal;font-weight:normal;font-stretch:normal;text-indent:0;text-align:center;text-decoration:none;line-height:normal;letter-spacing:normal;word-spacing:normal;text-transform:none;direction:ltr;block-progression:tb;writing-mode:lr-tb;text-anchor:middle;color:black;fill:black;fill-opacity:1;fill-rule:nonzero;stroke:none;stroke-width:1px;stroke-linecap:butt;stroke-linejoin:miter;marker:none;marker-start:none;marker-mid:none;marker-end:none;stroke-miterlimit:4;stroke-dashoffset:0;stroke-opacity:1;visibility:visible;display:inline;overflow:visible;font-family:Bitstream Vera Sans"
           d="M 11.5,13.137851 L 11.31876,13.629315 L 11.681901,13.629315 L 11.5,13.137851 M 11.424594,13.006221 L 11.576068,13.006221 L 11.952437,13.993778 L 11.813531,13.993778 L 11.723573,13.74044 L 11.278411,13.74044 L 11.188453,13.993778 L 11.047563,13.993778 L 11.424594,13.006221"
           id="text3041" />
        <path
           style="font-size:1.35466659px;font-style:normal;font-variant:normal;font-weight:normal;font-stretch:normal;text-indent:0;text-align:center;text-decoration:none;line-height:normal;letter-spacing:normal;word-spacing:normal;text-transform:none;direction:ltr;block-progression:tb;writing-mode:lr-tb;text-anchor:middle;color:black;fill:black;fill-opacity:1;fill-rule:nonzero;stroke:none;stroke-width:1px;stroke-linecap:butt;stroke-linejoin:miter;marker:none;marker-start:none;marker-mid:none;marker-end:none;stroke-miterlimit:4;stroke-dashoffset:0;stroke-opacity:1;visibility:visible;display:inline;overflow:visible;font-family:Bitstream Vera Sans"
           d="M 13.287341,13.522158 L 13.287341,13.883976 L 13.501653,13.883976 C 13.573531,13.883976 13.626668,13.869204 13.661065,13.839658 C 13.695901,13.809673 13.713319,13.764032 13.71332,13.702737 C 13.713319,13.641001 13.695901,13.595581 13.661065,13.566476 C 13.626668,13.536931 13.573531,13.522159 13.501653,13.522158 L 13.287341,13.522158 M 13.287341,13.116023 L 13.287341,13.413679 L 13.485117,13.413679 C 13.55038,13.41368 13.598887,13.401553 13.630638,13.377299 C 13.662828,13.352605 13.678924,13.315123 13.678924,13.264851 C 13.678924,13.215022 13.662828,13.17776 13.630638,13.153065 C 13.598887,13.128371 13.55038,13.116024 13.485117,13.116023 L 13.287341,13.116023 M 13.153726,13.006221 L 13.495039,13.006221 C 13.596903,13.006222 13.675396,13.027389 13.730518,13.069721 C 13.785639,13.112055 13.813199,13.172248 13.8132,13.250299 C 13.813199,13.310713 13.799088,13.358779 13.770867,13.394497 C 13.742644,13.430216 13.701193,13.452485 13.646513,13.461304 C 13.712217,13.475416 13.763149,13.504961 13.79931,13.54994 C 13.83591,13.594478 13.85421,13.650261 13.854211,13.717289 C 13.85421,13.805483 13.824224,13.873613 13.764252,13.921679 C 13.704279,13.969745 13.618951,13.993778 13.508268,13.993778 L 13.153726,13.993778 L 13.153726,13.006221"
           id="text3045" />
        <path
           style="font-size:1.35466659px;font-style:normal;font-variant:normal;font-weight:normal;font-stretch:normal;text-indent:0;text-align:center;text-decoration:none;line-height:normal;letter-spacing:normal;word-spacing:normal;text-transform:none;direction:ltr;block-progression:tb;writing-mode:lr-tb;text-anchor:middle;color:black;fill:black;fill-opacity:1;fill-rule:nonzero;stroke:none;stroke-width:1px;stroke-linecap:butt;stroke-linejoin:miter;marker:none;marker-start:none;marker-mid:none;marker-end:none;stroke-miterlimit:4;stroke-dashoffset:0;stroke-opacity:1;visibility:visible;display:inline;overflow:visible;font-family:Bitstream Vera Sans"
           d="M 17.21855,13.116023 L 17.21855,13.883976 L 17.379946,13.883976 C 17.516206,13.883976 17.615865,13.853108 17.678925,13.791372 C 17.742424,13.729636 17.774174,13.632181 17.774175,13.499007 C 17.774174,13.366716 17.742424,13.269923 17.678925,13.208627 C 17.615865,13.146892 17.516206,13.116024 17.379946,13.116023 L 17.21855,13.116023 M 17.084935,13.006221 L 17.35944,13.006221 C 17.550822,13.006222 17.691271,13.04613 17.780789,13.125945 C 17.870306,13.205321 17.915064,13.329675 17.915065,13.499007 C 17.915064,13.669223 17.870085,13.794239 17.780128,13.874054 C 17.690169,13.95387 17.54994,13.993778 17.35944,13.993778 L 17.084935,13.993778 L 17.084935,13.006221"
           id="text3049" />
        <path
           style="font-size:1.35466659px;font-style:normal;font-variant:normal;font-weight:bold;font-stretch:normal;text-indent:0;text-align:center;text-decoration:none;line-height:normal;letter-spacing:normal;word-spacing:normal;text-transform:none;direction:ltr;block-progression:tb;writing-mode:lr-tb;text-anchor:middle;color:black;fill:black;fill-opacity:1;fill-rule:nonzero;stroke:none;stroke-width:1px;stroke-linecap:butt;stroke-linejoin:miter;marker:none;marker-start:none;marker-mid:none;marker-end:none;stroke-miterlimit:4;stroke-dashoffset:0;stroke-opacity:1;visibility:visible;display:inline;overflow:visible;font-family:Bitstream Vera Sans"
           d="M 19.138844,13.006221 L 19.826099,13.006221 L 19.826099,13.198705 L 19.393505,13.198705 L 19.393505,13.382591 L 19.800302,13.382591 L 19.800302,13.575075 L 19.393505,13.575075 L 19.393505,13.801294 L 19.840651,13.801294 L 19.840651,13.993778 L 19.138844,13.993778 L 19.138844,13.006221"
           id="text3053" />
        <path
           style="font-size:1.35466659px;font-style:normal;font-variant:normal;font-weight:normal;font-stretch:normal;text-indent:0;text-align:center;text-decoration:none;line-height:normal;letter-spacing:normal;word-spacing:normal;text-transform:none;direction:ltr;block-progression:tb;writing-mode:lr-tb;text-anchor:middle;color:black;fill:black;fill-opacity:1;fill-rule:nonzero;stroke:none;stroke-width:1px;stroke-linecap:butt;stroke-linejoin:miter;marker:none;marker-start:none;marker-mid:none;marker-end:none;stroke-miterlimit:4;stroke-dashoffset:0;stroke-opacity:1;visibility:visible;display:inline;overflow:visible;font-family:Bitstream Vera Sans"
           d="M 21.216234,13.006221 L 21.783765,13.006221 L 21.783765,13.118669 L 21.349849,13.118669 L 21.349849,13.409711 L 21.741432,13.409711 L 21.741432,13.522158 L 21.349849,13.522158 L 21.349849,13.993778 L 21.216234,13.993778 L 21.216234,13.006221"
           id="text3057" />
        <path
           style="font-size:1.35466659px;font-style:normal;font-variant:normal;font-weight:normal;font-stretch:normal;text-indent:0;text-align:center;text-decoration:none;line-height:normal;letter-spacing:normal;word-spacing:normal;text-transform:none;direction:ltr;block-progression:tb;writing-mode:lr-tb;text-anchor:middle;color:black;fill:black;fill-opacity:1;fill-rule:nonzero;stroke:none;stroke-width:1px;stroke-linecap:butt;stroke-linejoin:miter;marker:none;marker-start:none;marker-mid:none;marker-end:none;stroke-miterlimit:4;stroke-dashoffset:0;stroke-opacity:1;visibility:visible;display:inline;overflow:visible;font-family:Bitstream Vera Sans"
           d="M 15.898198,13.081628 L 15.898198,13.222518 C 15.853218,13.180627 15.805152,13.149318 15.754,13.128591 C 15.703287,13.107867 15.649268,13.097504 15.591942,13.097503 C 15.479053,13.097504 15.392623,13.13212 15.332651,13.201352 C 15.272678,13.270144 15.242692,13.369804 15.242692,13.500331 C 15.242692,13.630418 15.272678,13.730078 15.332651,13.79931 C 15.392623,13.868102 15.479053,13.902498 15.591942,13.902498 C 15.649268,13.902498 15.703287,13.892135 15.754,13.871409 C 15.805152,13.850683 15.853218,13.819374 15.898198,13.777482 L 15.898198,13.91705 C 15.851454,13.9488 15.801844,13.972612 15.749369,13.988487 C 15.697334,14.004362 15.642213,14.0123 15.584005,14.0123 C 15.434515,14.0123 15.316775,13.966659 15.230786,13.875378 C 15.144796,13.783656 15.101802,13.65864 15.101802,13.500331 C 15.101802,13.341582 15.144796,13.216566 15.230786,13.125284 C 15.316775,13.033563 15.434515,12.987702 15.584005,12.987701 C 15.643094,12.987702 15.698657,12.995639 15.750692,13.011513 C 15.803167,13.026948 15.852336,13.05032 15.898198,13.081628"
           id="text3061" />
        <path
           style="font-size:1.35466659px;font-style:normal;font-variant:normal;font-weight:normal;font-stretch:normal;text-indent:0;text-align:center;text-decoration:none;line-height:normal;letter-spacing:normal;word-spacing:normal;text-transform:none;direction:ltr;block-progression:tb;writing-mode:lr-tb;text-anchor:middle;color:black;fill:#bfbfbf;fill-opacity:1;fill-rule:nonzero;stroke:none;stroke-width:1px;stroke-linecap:butt;stroke-linejoin:miter;marker:none;marker-start:none;marker-mid:none;marker-end:none;stroke-miterlimit:4;stroke-dashoffset:0;stroke-opacity:1;visibility:visible;display:inline;overflow:visible;font-family:Bitstream Vera Sans"
           d="M 5.1223071,5.0062215 L 5.2658436,5.0062215 L 5.5112446,5.3733308 L 5.7579686,5.0062215 L 5.901505,5.0062215 L 5.584005,5.4804871 L 5.9226717,5.9937787 L 5.7791352,5.9937787 L 5.5013227,5.5737527 L 5.2215259,5.9937787 L 5.077328,5.9937787 L 5.4298853,5.4665964 L 5.1223071,5.0062215"
           id="text3093" />
        <path
           style="font-size:1.35466659px;font-style:normal;font-variant:normal;font-weight:normal;font-stretch:normal;text-indent:0;text-align:center;text-decoration:none;line-height:normal;letter-spacing:normal;word-spacing:normal;text-transform:none;direction:ltr;block-progression:tb;writing-mode:lr-tb;text-anchor:middle;color:black;fill:#bfbfbf;fill-opacity:1;fill-rule:nonzero;stroke:none;stroke-width:1px;stroke-linecap:butt;stroke-linejoin:miter;marker:none;marker-start:none;marker-mid:none;marker-end:none;stroke-miterlimit:4;stroke-dashoffset:0;stroke-opacity:1;visibility:visible;display:inline;overflow:visible;font-family:Bitstream Vera Sans"
           d="M 7.0836122,5.0062215 L 7.2271486,5.0062215 L 7.5009924,5.4123569 L 7.7728517,5.0062215 L 7.9163882,5.0062215 L 7.5671382,5.5234819 L 7.5671382,5.9937787 L 7.4328622,5.9937787 L 7.4328622,5.5234819 L 7.0836122,5.0062215"
           id="text3097" />
        <path
           style="font-size:1.35466659px;font-style:normal;font-variant:normal;font-weight:normal;font-stretch:normal;text-indent:0;text-align:center;text-decoration:none;line-height:normal;letter-spacing:normal;word-spacing:normal;text-transform:none;direction:ltr;block-progression:tb;writing-mode:lr-tb;text-anchor:middle;color:black;fill:#bfbfbf;fill-opacity:1;fill-rule:nonzero;stroke:none;stroke-width:1px;stroke-linecap:butt;stroke-linejoin:miter;marker:none;marker-start:none;marker-mid:none;marker-end:none;stroke-miterlimit:4;stroke-dashoffset:0;stroke-opacity:1;visibility:visible;display:inline;overflow:visible;font-family:Bitstream Vera Sans"
           d="M 9.1120549,5.0062215 L 9.8879455,5.0062215 L 9.8879455,5.108086 L 9.2635289,5.8813308 L 9.903159,5.8813308 L 9.903159,5.9937787 L 9.0968414,5.9937787 L 9.0968414,5.8919141 L 9.721258,5.1186694 L 9.1120549,5.1186694 L 9.1120549,5.0062215"
           id="text3101" />
        <path
           style="font-size:1.35466659px;font-style:normal;font-variant:normal;font-weight:normal;font-stretch:normal;text-indent:0;text-align:center;text-decoration:none;line-height:normal;letter-spacing:normal;word-spacing:normal;text-transform:none;direction:ltr;block-progression:tb;writing-mode:lr-tb;text-anchor:middle;color:black;fill:#bfbfbf;fill-opacity:1;fill-rule:nonzero;stroke:none;stroke-width:1px;stroke-linecap:butt;stroke-linejoin:miter;marker:none;marker-start:none;marker-mid:none;marker-end:none;stroke-miterlimit:4;stroke-dashoffset:0;stroke-opacity:1;visibility:visible;display:inline;overflow:visible;font-family:Bitstream Vera Sans"
           d="M 23.798978,13.852227 L 23.798978,13.586982 L 23.580697,13.586982 L 23.580697,13.47718 L 23.93127,13.47718 L 23.93127,13.901175 C 23.879675,13.937775 23.82279,13.965557 23.760614,13.984518 C 23.698436,14.003039 23.63207,14.0123 23.561515,14.0123 C 23.407174,14.0123 23.286348,13.96732 23.199036,13.877362 C 23.112164,13.786963 23.068728,13.661286 23.068728,13.500331 C 23.068728,13.338936 23.112164,13.213259 23.199036,13.1233 C 23.286348,13.032901 23.407174,12.987702 23.561515,12.987701 C 23.625896,12.987702 23.686971,12.995639 23.744739,13.011513 C 23.802946,13.027389 23.856524,13.050761 23.905473,13.081628 L 23.905473,13.223841 C 23.856083,13.18195 23.803608,13.15042 23.748046,13.129253 C 23.692483,13.108087 23.634054,13.097504 23.57276,13.097503 C 23.451933,13.097504 23.361093,13.131238 23.300239,13.198706 C 23.239825,13.266175 23.209619,13.366717 23.209619,13.500331 C 23.209619,13.633505 23.239825,13.733826 23.300239,13.801294 C 23.361093,13.868763 23.451933,13.902498 23.57276,13.902498 C 23.619943,13.902498 23.662056,13.898529 23.699098,13.890591 C 23.736139,13.882213 23.769432,13.869425 23.798978,13.852227"
           id="text4875" />
        <path
           style="font-size:1.35466659px;font-style:normal;font-variant:normal;font-weight:normal;font-stretch:normal;text-indent:0;text-align:center;text-decoration:none;line-height:normal;letter-spacing:normal;word-spacing:normal;text-transform:none;direction:ltr;block-progression:tb;writing-mode:lr-tb;text-anchor:middle;color:black;fill:#bfbfbf;fill-opacity:1;fill-rule:nonzero;stroke:none;stroke-width:1px;stroke-linecap:butt;stroke-linejoin:miter;marker:none;marker-start:none;marker-mid:none;marker-end:none;stroke-miterlimit:4;stroke-dashoffset:0;stroke-opacity:1;visibility:visible;display:inline;overflow:visible;font-family:Bitstream Vera Sans"
           d="M 25.12363,13.006221 L 25.257245,13.006221 L 25.257245,13.411033 L 25.742755,13.411033 L 25.742755,13.006221 L 25.87637,13.006221 L 25.87637,13.993778 L 25.742755,13.993778 L 25.742755,13.523481 L 25.257245,13.523481 L 25.257245,13.993778 L 25.12363,13.993778 L 25.12363,13.006221"
           id="text4879" />
        <path
           style="font-size:1.35466659px;font-style:normal;font-variant:normal;font-weight:normal;font-stretch:normal;text-indent:0;text-align:center;text-decoration:none;line-height:normal;letter-spacing:normal;word-spacing:normal;text-transform:none;direction:ltr;block-progression:tb;writing-mode:lr-tb;text-anchor:middle;color:black;fill:#bfbfbf;fill-opacity:1;fill-rule:nonzero;stroke:none;stroke-width:1px;stroke-linecap:butt;stroke-linejoin:miter;marker:none;marker-start:none;marker-mid:none;marker-end:none;stroke-miterlimit:4;stroke-dashoffset:0;stroke-opacity:1;visibility:visible;display:inline;overflow:visible;font-family:Bitstream Vera Sans"
           d="M 27.433193,13.006221 L 27.566807,13.006221 L 27.566807,13.993778 L 27.433193,13.993778 L 27.433193,13.006221"
           id="text4883" />
      </g>
    </g>
  </g>
</svg>
