<svg width="580" height="210" xmlns="http://www.w3.org/2000/svg" xmlns:svg="http://www.w3.org/2000/svg">
  <metadata id="metadata2141">image/svg+xml</metadata>
  <g>
    <title>Layer 1</title>
    <rect id="svgEditorBackground" x="2.515869" y="3.221405" width="564.968262" height="203.55719" fill="none"/>
    <g id="layer1">
      <g id="g2029">
	<path d="m89.542404,76.812386a14.17323,14.17323 0 1 1 -28.346466,0a14.17323,14.17323 0 1 1 28.346466,0z" id="path2016" stroke-dashoffset="0" stroke-miterlimit="4" stroke-width="1.875" stroke="black" fill="none"/>
	<path id="path2018" d="m75.369171,62.639153l0,28.346466" stroke-dashoffset="0" stroke-miterlimit="4" stroke-width="1.875" stroke="black" fill="none"/>
	<path id="path2020" d="m61.195953,76.812386l28.346451,0" stroke-dashoffset="0" stroke-miterlimit="4" stroke-width="1.875" stroke="black" fill="none"/>
      </g>
      <g id="g5277">
	<path d="m74.428101,20.114349l0,42.53125l1.875,0l0,-42.53125l-1.875,0z" id="path2148" stroke-dashoffset="0" stroke-miterlimit="4" stroke-width="1.875" fill="black"/>
	<path d="m75.369171,55.13916l-3.75,-3.75l3.75,13.125l3.75,-13.125l-3.75,3.75z" id="path5283" marker-start="none" stroke-width="0.4pt" stroke="black" fill-rule="evenodd"/>
      </g>
      <g id="g5285">
	<path d="m18.678101,75.864349l0,1.875l42.53125,0l0,-1.875l-42.53125,0z" id="path2150" stroke-dashoffset="0" stroke-miterlimit="4" stroke-width="1.875" fill="black"/>
	<path d="m53.695938,76.812378l-3.75,3.75l13.125,-3.75l-13.125,-3.75l3.75,3.75z" id="path5291" marker-start="none" stroke-width="0.4pt" stroke="black" fill-rule="evenodd"/>
      </g>
      <g id="g5293">
	<path d="m74.428101,90.989349l0,42.53125l1.875,0l0,-42.53125l-1.875,0z" id="path2152" stroke-dashoffset="0" stroke-miterlimit="4" stroke-width="1.875" fill="black"/>
	<path d="m75.369171,126.00531l-3.75,-3.75l3.75,13.125l3.75,-13.125l-3.75,3.75z" id="path5299" marker-start="none" stroke-width="0.4pt" stroke="black" fill-rule="evenodd"/>
      </g>
      <g id="g5301">
	<path d="m18.678101,146.739349l0,1.875l42.53125,0l0,-1.875l-42.53125,0z" id="path2158" stroke-dashoffset="0" stroke-miterlimit="4" stroke-width="1.875" fill="black"/>
	<path d="m53.695938,147.678528l-3.75,3.75l13.125,-3.75l-13.125,-3.75l3.75,3.75z" id="path5307" marker-start="none" stroke-width="0.4pt" stroke="black" fill-rule="evenodd"/>
      </g>
      <g id="g3251">
	<rect y="133.505304" x="61.195941" height="28.346457" width="28.346457" id="rect2156" stroke-dashoffset="0" stroke-miterlimit="4" stroke-width="1.875" stroke="black" fill="white"/>
	<text id="text3227" y="154.239554" x="75.136261" xml:space="preserve" font-family="DejaVu Sans" stroke-width="1px" fill="black" text-anchor="middle" font-weight="normal" font-style="italic" font-size="18px">
	  <tspan y="154.239554" x="75.136261" id="tspan3229">E</tspan>
	</text>
      </g>
      <path transform="translate(-125.5718994140625,-213.41690063476562) scale(0.9663130044937134,1.0348609685897827) " d="m136.665894,340.746918l1.673553,0l-1.6008,8.249573l5.739243,-4.283966l2.173813,0l-6.403198,4.875183l4.675049,5.311737l-2.028275,0l-4.347626,-4.97522l-0.964127,4.97522l-1.673553,0l2.75592,-14.152527" id="text3236" stroke-width="1px" fill="black"/>
      <path d="m78.470749,10.639389l-1.151367,5.941406l-1.617188,0l1.133789,-5.888672c0.04686,-0.251939 0.082016,-0.46875 0.105469,-0.650392c0.023422,-0.181641 0.035141,-0.336899 0.035156,-0.465819c-0.000015,-0.527328 -0.1465,-0.9375 -0.439453,-1.23047c-0.292984,-0.292969 -0.70314,-0.439438 -1.230469,-0.439453c-0.785172,0.000015 -1.485367,0.295914 -2.100586,0.887695c-0.615234,0.585938 -1.013687,1.350586 -1.195313,2.293945l-1.081055,5.493163l-1.617188,0l1.151367,-5.88867c0.046875,-0.216798 0.082031,-0.416017 0.105469,-0.597656c0.023422,-0.1875 0.035156,-0.354493 0.035156,-0.500978c0,-0.533188 -0.1465,-0.946274 -0.439453,-1.239258c-0.292969,-0.298828 -0.697281,-0.448227 -1.212891,-0.448242c-0.79689,0.000015 -1.50293,0.295914 -2.118164,0.887695c-0.615234,0.585938 -1.013687,1.350586 -1.195313,2.293945l-1.081055,5.493163l-1.617191,0l1.924809,-9.84375l1.617188,0l-0.307617,1.529297c0.439453,-0.574219 0.952133,-1.010727 1.538086,-1.30957c0.591797,-0.304688 1.224609,-0.457016 1.898438,-0.457032c0.714844,0.000015 1.300781,0.187516 1.757813,0.5625c0.462891,0.375016 0.741211,0.896484 0.834961,1.564454c0.492172,-0.691392 1.060532,-1.21875 1.705078,-1.582032c0.650375,-0.363265 1.335922,-0.544906 2.056641,-0.544922c0.843735,0.000015 1.494125,0.243179 1.951172,0.729492c0.462875,0.486343 0.694321,1.17482 0.694336,2.06543c-0.000015,0.193359 -0.011734,0.407243 -0.035156,0.641603c-0.023453,0.228531 -0.058609,0.462891 -0.105469,0.703125m3.612305,4.447267l2.900391,0l0,-10.010743l-3.155273,0.632813l0,-1.617188l3.137695,-0.632813l1.775391,0l0,11.62793l2.900391,0l0,1.494142l-7.558594,0l0,-1.494142" id="text3244" stroke-width="1px" fill="black"/>
      <g id="g3256">
	<path d="m245.447891,76.812386a14.17323,14.17323 0 1 1 -28.346466,0a14.17323,14.17323 0 1 1 28.346466,0z" id="path3258" stroke-dashoffset="0" stroke-miterlimit="4" stroke-width="1.875" stroke="black" fill="none"/>
	<path id="path3260" d="m231.274658,62.639153l0,28.346466" stroke-dashoffset="0" stroke-miterlimit="4" stroke-width="1.875" stroke="black" fill="none"/>
	<path id="path3262" d="m217.10144,76.812386l28.346451,0" stroke-dashoffset="0" stroke-miterlimit="4" stroke-width="1.875" stroke="black" fill="none"/>
      </g>
      <g id="g5309">
	<path d="m230.334351,20.114349l0,42.53125l1.875,0l0,-42.53125l-1.875,0z" id="path3264" stroke-dashoffset="0" stroke-miterlimit="4" stroke-width="1.875" fill="black"/>
	<path d="m231.274658,55.13916l-3.75,-3.75l3.75,13.125l3.75,-13.125l-3.75,3.75z" id="path5315" marker-start="none" stroke-width="0.4pt" stroke="black" fill-rule="evenodd"/>
      </g>
      <g id="g5317">
	<path d="m230.334351,90.989349l0,42.53125l1.875,0l0,-42.53125l-1.875,0z" id="path3268" stroke-dashoffset="0" stroke-miterlimit="4" stroke-width="1.875" fill="black"/>
	<path d="m231.274658,126.00531l-3.75,-3.75l3.75,13.125l3.75,-13.125l-3.75,3.75z" id="path5323" marker-start="none" stroke-width="0.4pt" stroke="black" fill-rule="evenodd"/>
      </g>
      <g id="g5325">
	<path d="m174.584351,146.739349l0,1.875l42.53125,0l0,-1.875l-42.53125,0z" id="path3270" stroke-dashoffset="0" stroke-miterlimit="4" stroke-width="1.875" fill="black"/>
	<path d="m209.60144,147.678528l-3.75,3.75l13.125,-3.75l-13.125,-3.75l3.75,3.75z" id="path5331" marker-start="none" stroke-width="0.4pt" stroke="black" fill-rule="evenodd"/>
      </g>
      <g id="g3272">
	<rect y="133.505304" x="217.101473" height="28.346457" width="28.346457" id="rect3274" stroke-dashoffset="0" stroke-miterlimit="4" stroke-width="1.875" stroke="black" fill="white"/>
	<text id="text3276" y="154.239554" x="231.041793" xml:space="preserve" font-family="DejaVu Sans" stroke-width="1px" fill="black" text-anchor="middle" font-weight="normal" font-style="italic" font-size="18px">
	  <tspan y="154.239554" x="231.041793" id="tspan3278">E</tspan>
	</text>
      </g>
      <path transform="translate(-125.5718994140625,-213.41690063476562) scale(0.9663130044937134,1.0348609685897827) " d="m298.006317,340.746765l1.673584,0l-1.6008,8.249573l5.739227,-4.283966l2.173798,0l-6.403198,4.875183l4.675079,5.311737l-2.02829,0l-4.347626,-4.97522l-0.964111,4.97522l-1.673584,0l2.75592,-14.152527" id="text3280" stroke-width="1px" fill="black"/>
      <path d="m234.376251,10.639374l-1.151367,5.941406l-1.617188,0l1.133789,-5.888672c0.046875,-0.251953 0.082001,-0.468735 0.105469,-0.650392c0.023438,-0.181641 0.035156,-0.336913 0.035156,-0.465819c0,-0.527344 -0.146515,-0.937485 -0.439453,-1.230469c-0.292999,-0.292953 -0.703125,-0.439454 -1.230469,-0.439454c-0.785156,0 -1.485352,0.295898 -2.100586,0.887695c-0.615234,0.585954 -1.013672,1.350586 -1.195313,2.293945l-1.081055,5.493163l-1.617188,0l1.151367,-5.888671c0.046875,-0.216783 0.082031,-0.416017 0.105469,-0.597656c0.023438,-0.1875 0.035156,-0.354477 0.035156,-0.500977c0,-0.533203 -0.146484,-0.946289 -0.439453,-1.239259c-0.292969,-0.298813 -0.697266,-0.448242 -1.212891,-0.448242c-0.796875,0 -1.50293,0.295898 -2.118164,0.887695c-0.615234,0.585954 -1.013672,1.350586 -1.195313,2.293945l-1.081055,5.493164l-1.617188,0l1.924805,-9.84375l1.617188,0l-0.307617,1.529297c0.439453,-0.574203 0.952148,-1.010742 1.538086,-1.30957c0.591797,-0.304672 1.224609,-0.457016 1.898438,-0.457031c0.714844,0.000015 1.300781,0.187515 1.757813,0.5625c0.462891,0.375015 0.741211,0.8965 0.834961,1.564453c0.492188,-0.691405 1.060516,-1.218735 1.705078,-1.582031c0.650391,-0.363266 1.335938,-0.544907 2.056641,-0.544922c0.843719,0.000015 1.49411,0.243179 1.951172,0.729492c0.46286,0.486343 0.694305,1.174805 0.694336,2.06543c-0.000031,0.193358 -0.011749,0.407227 -0.035156,0.641602c-0.023438,0.228517 -0.058624,0.462906 -0.105469,0.703125m4.833984,4.447267l6.196289,0l0,1.494141l-8.332031,0l0,-1.494141c0.673828,-0.697267 1.59082,-1.631836 2.750977,-2.803711c1.166016,-1.177734 1.898438,-1.936523 2.197266,-2.276367c0.568359,-0.638658 0.963867,-1.177719 1.186523,-1.617188c0.228516,-0.445297 0.342773,-0.881821 0.342773,-1.30957c0,-0.69725 -0.246094,-1.26561 -0.738281,-1.705078c-0.486328,-0.439453 -1.12207,-0.659164 -1.907227,-0.65918c-0.556641,0.000015 -1.145508,0.096695 -1.766602,0.290039c-0.615234,0.193375 -1.274414,0.486328 -1.977539,0.878906l0,-1.792968c0.714844,-0.287094 1.382813,-0.503892 2.003906,-0.650392c0.621094,-0.146469 1.189453,-0.219711 1.705078,-0.219727c1.359375,0.000015 2.443359,0.339859 3.251953,1.019531c0.808594,0.679703 1.212891,1.587906 1.212891,2.724609c0,0.539078 -0.102539,1.051758 -0.307617,1.538086c-0.199219,0.480484 -0.56543,1.048843 -1.098633,1.705078c-0.146484,0.169937 -0.612305,0.662126 -1.397461,1.476563c-0.785156,0.808594 -1.892578,1.942383 -3.322266,3.401366" id="text3288" stroke-width="1px" fill="black"/>
      <g id="g5333">
	<path d="m116.959351,75.864349l0,0.9375l0,112.46875l-40.65625,0l0,-27.40625l-1.875,0l0,28.34375l0,0.9375l0.9375,0l42.53125,0l0.9375,0l0,-0.9375l0,-112.46875l98.28125,0l0,-1.875l-99.21875,0l-0.9375,0z" id="path3292" stroke-dashoffset="0" stroke-miterlimit="4" stroke-width="1.875" fill="black"/>
	<path d="m209.60144,76.812378l-3.75,3.75l13.125,-3.75l-13.125,-3.75l3.75,3.75z" id="path5339" marker-start="none" stroke-width="0.4pt" stroke="black" fill-rule="evenodd"/>
      </g>
      <g id="g5341">
	<path d="m272.865601,75.864349l0,0.9375l0,112.46875l-40.65625,0l0,-27.40625l-1.875,0l0,28.34375l0,0.9375l0.9375,0l42.53125,0l0.9375,0l0,-0.9375l0,-112.46875l98.28125,0l0,-1.875l-99.21875,0l-0.9375,0z" id="path4179" stroke-dashoffset="0" stroke-miterlimit="4" stroke-width="1.875" fill="black"/>
	<path d="m365.506958,76.812378l-3.75,3.75l13.125,-3.75l-13.125,-3.75l3.75,3.75z" id="path5347" marker-start="none" stroke-width="0.4pt" stroke="black" fill-rule="evenodd"/>
      </g>
      <g id="g4181">
	<path d="m557.25885,76.812386a14.17323,14.17323 0 1 1 -28.346436,0a14.17323,14.17323 0 1 1 28.346436,0z" id="path4183" stroke-dashoffset="0" stroke-miterlimit="4" stroke-width="1.875" stroke="black" fill="none"/>
	<path id="path4185" d="m543.085632,62.639153l0,28.346466" stroke-dashoffset="0" stroke-miterlimit="4" stroke-width="1.875" stroke="black" fill="none"/>
	<path id="path4187" d="m528.912415,76.812386l28.346436,0" stroke-dashoffset="0" stroke-miterlimit="4" stroke-width="1.875" stroke="black" fill="none"/>
      </g>
      <g id="g5349">
	<path d="m542.146851,20.114349l0,42.53125l1.875,0l0,-42.53125l-1.875,0z" id="path4189" stroke-dashoffset="0" stroke-miterlimit="4" stroke-width="1.875" fill="black"/>
	<path d="m543.085632,55.13916l-3.75,-3.75l3.75,13.125l3.75,-13.125l-3.75,3.75z" id="path5355" marker-start="none" stroke-width="0.4pt" stroke="black" fill-rule="evenodd"/>
      </g>
      <g id="g5357">
	<path d="m542.146851,90.989349l0,42.53125l1.875,0l0,-42.53125l-1.875,0z" id="path4191" stroke-dashoffset="0" stroke-miterlimit="4" stroke-width="1.875" fill="black"/>
	<path d="m543.085632,126.00531l-3.75,-3.75l3.75,13.125l3.75,-13.125l-3.75,3.75z" id="path5363" marker-start="none" stroke-width="0.4pt" stroke="black" fill-rule="evenodd"/>
      </g>
      <g id="g5365">
	<path d="m486.396851,146.739349l0,1.875l42.5,0l0,-1.875l-42.5,0z" id="path4193" stroke-dashoffset="0" stroke-miterlimit="4" stroke-width="1.875" fill="black"/>
	<path d="m521.412415,147.678528l-3.75,3.75l13.125,-3.75l-13.125,-3.75l3.75,3.75z" id="path5371" marker-start="none" stroke-width="0.4pt" stroke="black" fill-rule="evenodd"/>
      </g>
      <g id="g4195">
	<rect y="133.505303" x="528.912462" height="28.346457" width="28.346457" id="rect4197" stroke-dashoffset="0" stroke-miterlimit="4" stroke-width="1.875" stroke="black" fill="white"/>
	<text id="text4199" y="154.239553" x="542.852782" xml:space="preserve" font-family="DejaVu Sans" stroke-width="1px" fill="black" text-anchor="middle" font-weight="normal" font-style="italic" font-size="18px">
	  <tspan y="154.239553" x="542.852782" id="tspan4201">E</tspan>
	</text>
      </g>
      <path transform="translate(-125.5718994140625,-213.41690063476562) scale(0.9663130044937134,1.0348609685897827) " d="m620.687134,340.746582l1.673523,0l-1.600769,8.249573l5.739197,-4.283936l2.173828,0l-6.403198,4.875153l4.675049,5.311737l-2.028259,0l-4.347656,-4.97522l-0.964111,4.97522l-1.673523,0l2.75592,-14.152527" id="text4203" stroke-width="1px" fill="black"/>
      <path d="m546.573975,10.639374l-1.151367,5.941406l-1.617188,0l1.133789,-5.888672c0.046875,-0.251953 0.082031,-0.468735 0.105469,-0.650392c0.023438,-0.181641 0.035156,-0.336913 0.035156,-0.465819c0,-0.527344 -0.146484,-0.937485 -0.439453,-1.230469c-0.292969,-0.292953 -0.703125,-0.439454 -1.230469,-0.439454c-0.785156,0 -1.485352,0.295898 -2.100586,0.887695c-0.615234,0.585954 -1.013672,1.350586 -1.195313,2.293945l-1.081055,5.493163l-1.617188,0l1.151367,-5.888671c0.046875,-0.216783 0.082031,-0.416017 0.105469,-0.597656c0.023438,-0.1875 0.035156,-0.354477 0.035156,-0.500977c0,-0.533203 -0.146484,-0.946289 -0.439453,-1.239259c-0.292969,-0.298813 -0.697266,-0.448242 -1.212891,-0.448242c-0.796875,0 -1.50293,0.295898 -2.118164,0.887695c-0.615234,0.585954 -1.013672,1.350586 -1.195313,2.293945l-1.081055,5.493164l-1.617188,0l1.924805,-9.84375l1.617188,0l-0.307617,1.529297c0.439453,-0.574203 0.952148,-1.010742 1.538086,-1.30957c0.591797,-0.304672 1.224609,-0.457016 1.898438,-0.457031c0.714844,0.000015 1.300781,0.187515 1.757813,0.5625c0.462891,0.375015 0.741211,0.8965 0.834961,1.564453c0.492188,-0.691405 1.060547,-1.218735 1.705078,-1.582031c0.650391,-0.363266 1.335938,-0.544907 2.056641,-0.544922c0.84375,0.000015 1.494141,0.243179 1.951172,0.729492c0.462891,0.486343 0.694336,1.174805 0.694336,2.06543c0,0.193358 -0.011719,0.407227 -0.035156,0.641602c-0.023438,0.228517 -0.058594,0.462906 -0.105469,0.703125m12.181641,-3.902344l-4.517578,4.825195l2.768555,5.018554l-1.854492,0l-2.083008,-3.902343l-3.621094,3.902343l-1.959961,0l4.842773,-5.185546l-2.575195,-4.658203l1.854492,0l1.889648,3.55957l3.295898,-3.55957l1.959961,0" id="text4207" stroke-width="1px" fill="black"/>
      <g id="g5373">
	<path d="m428.771851,75.864349l0,0.9375l0,112.46875l-40.65625,0l0,-27.40625l-1.875,0l0,28.34375l0,0.9375l0.9375,0l42.53125,0l0.9375,0l0,-0.9375l0,-112.46875l98.28125,0l0,-1.875l-99.21875,0l-0.9375,0z" id="path4211" stroke-dashoffset="0" stroke-miterlimit="4" stroke-width="1.875" fill="black"/>
	<path d="m521.412476,76.812378l-3.75,3.75l13.125,-3.75l-13.125,-3.75l3.75,3.75z" id="path5379" marker-start="none" stroke-width="0.4pt" stroke="black" fill-rule="evenodd"/>
      </g>
      <path d="m374.931763,117.09964l1.854492,0l0,2.232422l-1.854492,0l0,-2.232422m5.730469,0l1.854492,0l0,2.232422l-1.854492,0l0,-2.232422m5.730469,0l1.854492,0l0,2.232422l-1.854492,0l0,-2.232422" id="text4213" stroke-width="1px" fill="black"/>
      <g id="g5381">
	<path d="m542.146851,161.864349l0,28.34375l1.875,0l0,-28.34375l-1.875,0z" id="path4217" stroke-dashoffset="0" stroke-miterlimit="4" stroke-width="1.875" fill="black"/>
	<path d="m543.085693,182.698212l-3.75,-3.75l3.75,13.125l3.75,-13.125l-3.75,3.75z" id="path5387" marker-start="none" stroke-width="0.4pt" stroke="black" fill-rule="evenodd"/>
      </g>
      <path d="m524.452881,198.191681c-0.181641,-0.105469 -0.380859,-0.181641 -0.597656,-0.228516c-0.210938,-0.052734 -0.445313,-0.079102 -0.703125,-0.079102c-0.914063,0 -1.617188,0.298828 -2.109375,0.896484c-0.486328,0.591797 -0.729492,1.444336 -0.729492,2.557617l0,5.185547l-1.625977,0l0,-9.84375l1.625977,0l0,1.529297c0.339844,-0.597656 0.782227,-1.040039 1.327148,-1.327148c0.544922,-0.292969 1.207031,-0.439453 1.986328,-0.439453c0.111328,0 0.234375,0.008789 0.369141,0.026367c0.134766,0.011719 0.28418,0.032227 0.448242,0.061523l0.008789,1.661133m9.711914,3.005859l0,0.791016l-7.435547,0c0.070313,1.113281 0.404297,1.962891 1.001953,2.548828c0.603516,0.580078 1.441406,0.870117 2.513672,0.870117c0.621094,0 1.22168,-0.076172 1.801758,-0.228516c0.585938,-0.152344 1.166016,-0.380859 1.740234,-0.685547l0,1.529297c-0.580078,0.246094 -1.174805,0.433594 -1.78418,0.5625c-0.609375,0.128906 -1.227539,0.193359 -1.854492,0.193359c-1.570313,0 -2.81543,-0.457031 -3.735352,-1.371094c-0.914063,-0.914063 -1.371094,-2.150391 -1.371094,-3.708984c0,-1.611328 0.433594,-2.888672 1.300781,-3.832031c0.873047,-0.949219 2.047852,-1.423828 3.524414,-1.423828c1.324219,0 2.370117,0.427734 3.137695,1.283203c0.773438,0.849609 1.160156,2.006836 1.160156,3.47168m-1.617188,-0.474609c-0.011719,-0.884766 -0.260742,-1.59082 -0.74707,-2.118164c-0.480469,-0.527344 -1.119141,-0.791016 -1.916016,-0.791016c-0.902344,0 -1.625977,0.254883 -2.170898,0.764648c-0.539063,0.509766 -0.849609,1.227539 -0.931641,2.15332l5.765625,-0.008789m10.511719,-3.75293l0,1.529297c-0.457031,-0.234375 -0.931641,-0.410156 -1.423828,-0.527344c-0.492188,-0.117188 -1.001953,-0.175781 -1.529297,-0.175781c-0.802734,0 -1.40625,0.123047 -1.810547,0.369141c-0.398438,0.246094 -0.597656,0.615234 -0.597656,1.107422c0,0.375 0.143555,0.670898 0.430664,0.887695c0.287109,0.210938 0.864258,0.413086 1.731445,0.606445l0.553711,0.123047c1.148438,0.246094 1.962891,0.594727 2.443359,1.045898c0.486328,0.445313 0.729492,1.069336 0.729492,1.87207c0,0.914063 -0.363281,1.637695 -1.089844,2.170898c-0.720703,0.533203 -1.713867,0.799805 -2.979492,0.799805c-0.527344,0 -1.078125,-0.052734 -1.652344,-0.158203c-0.568359,-0.099609 -1.168945,-0.251953 -1.801758,-0.457031l0,-1.669922c0.597656,0.310547 1.186523,0.544922 1.766602,0.703125c0.580078,0.152344 1.154297,0.228516 1.722656,0.228516c0.761719,0 1.347656,-0.128906 1.757813,-0.386719c0.410156,-0.263672 0.615234,-0.632813 0.615234,-1.107422c0,-0.439453 -0.149414,-0.776367 -0.448242,-1.010742c-0.292969,-0.234375 -0.94043,-0.459961 -1.942383,-0.676758l-0.5625,-0.131836c-1.001953,-0.210938 -1.725586,-0.533203 -2.170898,-0.966797c-0.445313,-0.439453 -0.667969,-1.040039 -0.667969,-1.801758c0,-0.925781 0.328125,-1.640625 0.984375,-2.144531c0.65625,-0.503906 1.587891,-0.755859 2.794922,-0.755859c0.597656,0 1.160156,0.043945 1.6875,0.131836c0.527344,0.087891 1.013672,0.219727 1.458984,0.395508m2.90918,5.668945l0,-5.958984l1.617188,0l0,5.897461c0,0.931641 0.181641,1.631836 0.544922,2.100586c0.363281,0.462891 0.908203,0.694336 1.634766,0.694336c0.873047,0 1.561523,-0.27832 2.06543,-0.834961c0.509766,-0.556641 0.764648,-1.31543 0.764648,-2.276367l0,-5.581055l1.617188,0l0,9.84375l-1.617188,0l0,-1.511719c-0.392578,0.597656 -0.849609,1.042969 -1.371094,1.335938c-0.515625,0.287109 -1.116211,0.430664 -1.801758,0.430664c-1.130859,0 -1.989258,-0.351563 -2.575195,-1.054688c-0.585938,-0.703125 -0.878906,-1.731445 -0.878906,-3.084961m11.592773,-9.791016l1.617188,0l0,13.675781l-1.617188,0l0,-13.675781m6.591797,1.037109l0,2.794922l3.331055,0l0,1.256836l-3.331055,0l0,5.34375c0,0.802734 0.108398,1.318359 0.325195,1.546875c0.222656,0.228516 0.670898,0.342773 1.344727,0.342773l1.661133,0l0,1.353516l-1.661133,0c-1.248047,0 -2.109375,-0.231445 -2.583984,-0.694336c-0.474609,-0.46875 -0.711914,-1.318359 -0.711914,-2.548828l0,-5.34375l-1.186523,0l0,-1.256836l1.186523,0l0,-2.794922l1.625977,0" id="text4219" stroke-width="1px" fill="black"/>
    </g>
    <text fill="black" x="8.12141" y="75.8579" id="e1_texte" font-size="20px" font-family="Arial" font-weight="bold">0</text>
  </g>
</svg>
